<mxfile host="app.diagrams.net" modified="2024-05-06T07:22:53.210Z" agent="Mozilla/5.0 (Windows NT 10.0; Win64; x64) AppleWebKit/537.36 (KHTML, like Gecko) Chrome/124.0.0.0 Safari/537.36" version="24.3.0" etag="mT2D8l7De7EKgrkrHPnZ" type="github">
  <diagram name="Page-1" id="9ErjSbuegQ-XBsxqwOF9">
    <mxGraphModel>
      <root>
        <mxCell id="0" />
        <mxCell id="1" parent="0" />
      </root>
    </mxGraphModel>
  </diagram>
</mxfile>
